<svg width="46" height="47" viewBox="0 0 46 47" fill="none" xmlns="http://www.w3.org/2000/svg">
<path d="M5.27256 29.25H-0.000190094V27.3333C-0.0292052 24.6459 0.682515 22.0024 2.05689 19.6929C3.43127 17.3833 5.41521 15.4969 7.79106 14.2406C10.1316 13.0866 12.6664 12.3781 15.2661 12.1514C14.1301 13.557 12.991 15.0507 11.8486 16.6326C9.27574 20.6286 7.0745 24.8521 5.27256 29.25ZM29.8672 34.6416C25.8715 37.2178 21.648 39.4222 17.2498 41.2273V46.5H19.1665C21.8539 46.529 24.4974 45.8173 26.8069 44.4429C29.1165 43.0685 31.0029 41.0846 32.2592 38.7088C33.4132 36.3682 34.1217 33.8334 34.3484 31.2338C32.9492 32.3646 31.4555 33.5005 29.8672 34.6416ZM45.9998 6.23275C45.7449 14.576 39.7381 22.8503 27.6343 31.5328C24.3406 33.668 20.8657 35.5099 17.2498 37.0374V35.9583C17.2412 34.1818 16.5317 32.4805 15.2755 31.2243C14.0193 29.9681 12.318 29.2586 10.5415 29.25H9.46239C10.9917 25.6341 12.8363 22.1599 14.9747 18.8674C23.6361 6.78283 31.897 0.776 40.2268 0.5C44.3783 0.5 45.9998 2.19625 45.9998 6.23275ZM34.4998 16.7917C34.4998 15.5208 33.995 14.3021 33.0964 13.4034C32.1978 12.5048 30.979 12 29.7081 12C28.4373 12 27.2185 12.5048 26.3199 13.4034C25.4213 14.3021 24.9165 15.5208 24.9165 16.7917C24.9165 18.0625 25.4213 19.2813 26.3199 20.1799C27.2185 21.0785 28.4373 21.5833 29.7081 21.5833C30.979 21.5833 32.1978 21.0785 33.0964 20.1799C33.995 19.2813 34.4998 18.0625 34.4998 16.7917ZM2.63331 46.0879C4.79148 45.7046 9.99523 44.6351 11.7336 42.8986C12.2676 42.3646 12.6912 41.7307 12.9802 41.033C13.2692 40.3353 13.4179 39.5875 13.4179 38.8324C13.4179 38.0772 13.2692 37.3294 12.9802 36.6318C12.6912 35.9341 12.2676 35.3002 11.7336 34.7662C11.1997 34.2322 10.5657 33.8086 9.86805 33.5196C9.17037 33.2306 8.4226 33.0819 7.66744 33.0819C6.14231 33.0819 4.67965 33.6877 3.60123 34.7662C1.86473 36.5046 0.79331 41.7083 0.411893 43.8665L-0.0615234 46.5613L2.63331 46.0879Z" fill="url(#paint0_linear_10009_259)"/>
<defs>
<linearGradient id="paint0_linear_10009_259" x1="22.9691" y1="0.5" x2="22.9691" y2="46.5613" gradientUnits="userSpaceOnUse">
<stop stop-color="#005FEE"/>
<stop offset="0.475" stop-color="#0052CE"/>
</linearGradient>
</defs>
</svg>
