<svg width="94" height="95" viewBox="0 0 94 95" fill="none" xmlns="http://www.w3.org/2000/svg">
<path d="M10.8856 59.2959H0.125166V55.3429C0.0659536 49.8002 1.5184 44.3481 4.32317 39.5847C7.12795 34.8213 11.1767 30.9306 16.0252 28.3395C20.8016 25.9594 25.9746 24.4982 31.2799 24.0307C28.9617 26.9296 26.637 30.0103 24.3058 33.2729C19.0551 41.5147 14.5629 50.2255 10.8856 59.2959ZM61.0773 70.4159C52.9231 75.7293 44.304 80.2759 35.3282 83.9986V94.8735H39.2397C44.724 94.9333 50.1187 93.4654 54.832 90.6308C59.5453 87.7962 63.395 83.7044 65.9588 78.8043C68.3139 73.9771 69.7596 68.7491 70.2223 63.3874C67.3669 65.7197 64.3186 68.0625 61.0773 70.4159ZM94 11.8236C93.4798 29.0313 81.2213 46.0967 56.5205 64.004C49.7987 68.4079 42.7074 72.2068 35.3282 75.3572V73.1317C35.3107 69.4676 33.8628 65.9587 31.2992 63.3679C28.7356 60.777 25.2636 59.3136 21.6382 59.2959H19.436C22.5569 51.8383 26.3212 44.6728 30.6853 37.8822C48.3612 12.9581 65.2195 0.569241 82.2187 0C90.6909 0 94 3.49846 94 11.8236ZM70.5313 33.601C70.5313 30.98 69.5011 28.4663 67.6672 26.6129C65.8334 24.7596 63.3461 23.7184 60.7527 23.7184C58.1592 23.7184 55.672 24.7596 53.8381 26.6129C52.0043 28.4663 50.974 30.98 50.974 33.601C50.974 36.2221 52.0043 38.7358 53.8381 40.5891C55.672 42.4425 58.1592 43.4837 60.7527 43.4837C63.3461 43.4837 65.8334 42.4425 67.6672 40.5891C69.5011 38.7358 70.5313 36.2221 70.5313 33.601ZM5.4995 94.0236C9.9038 93.233 20.5234 91.0272 24.0711 87.4457C25.1608 86.3444 26.0252 85.0369 26.615 83.598C27.2047 82.159 27.5083 80.6168 27.5083 79.0593C27.5083 77.5018 27.2047 75.9595 26.615 74.5206C26.0252 73.0816 25.1608 71.7742 24.0711 70.6729C22.9813 69.5715 21.6876 68.6979 20.2639 68.1019C18.8401 67.5059 17.314 67.1991 15.7729 67.1991C12.6605 67.1991 9.67559 68.4486 7.47478 70.6729C3.93101 74.2583 1.74451 84.9909 0.966129 89.442L0 95L5.4995 94.0236Z" fill="#F3F3F3"/>
</svg>
