<svg width="84" height="49" viewBox="0 0 84 49" fill="none" xmlns="http://www.w3.org/2000/svg">
<g clip-path="url(#clip0_2009_501)">
<path d="M67.696 14.7571C67.696 18.7765 67.67 22.7958 67.7034 26.8151C67.7256 29.474 68.5078 30.3773 71.1955 30.4907C74.4615 30.6296 77.7349 30.5419 81.0046 30.5894C82.0241 30.604 83.2363 30.3736 83.8072 31.5184C84.3447 32.6046 83.6478 33.5664 83.0324 34.3674C81.8424 35.918 80.5412 37.3846 79.2437 38.8512C78.4504 39.7509 77.3419 39.9045 76.1964 39.9008C71.3216 39.8862 66.443 39.9008 61.5681 39.8642C59.0435 39.8423 58.2428 39.0779 58.1983 36.569C58.1353 33.2226 58.176 29.8726 58.1798 26.5225C58.1798 25.1255 58.0203 23.7796 56.4856 23.1835C54.8915 22.5617 53.6496 23.1835 52.5264 24.3465C48.3114 28.7096 44.0111 32.9959 39.8443 37.4029C38.1612 39.184 36.2928 40.1349 33.8016 39.8935C32.7636 39.7947 31.7034 39.8606 30.6543 39.8825C29.2938 39.9081 28.0333 39.7618 27.4402 38.2953C26.8619 36.8653 27.822 35.9985 28.6784 35.1208C32.0556 31.65 35.4439 28.1939 38.8322 24.7341C46.2502 17.1563 53.6756 9.58576 61.0824 2.00059C62.0982 0.961931 63.1881 0.128075 64.7117 0.0256716C66.8285 -0.116962 67.696 0.632777 67.7071 2.7101C67.7256 6.72943 67.7145 10.7488 67.7145 14.7681C67.7071 14.7681 67.7034 14.7681 67.696 14.7681V14.7571Z" fill="#FEB500"/>
<path d="M5.42006 48.9638C3.84824 48.9053 2.79912 49.0406 1.77224 48.6895C0.000231576 48.0824 -0.522475 46.6012 0.560009 45.0945C0.878823 44.6483 1.27549 44.2569 1.66103 43.8656C14.573 30.6775 27.5517 17.5589 40.345 4.26843C43.4812 1.00981 47.1402 1.22925 50.9363 1.62423C52.7639 1.81441 53.3163 3.58087 52.2709 5.1096C51.9298 5.61065 51.4849 6.04586 51.0549 6.48473C38.2875 19.5485 25.4979 32.5939 12.7639 45.6906C10.5693 47.9508 8.10032 49.2381 5.41636 48.9638H5.42006Z" fill="#FEB500"/>
</g>
<defs>
<clipPath id="clip0_2009_501">
<rect width="84" height="49" fill="white"/>
</clipPath>
</defs>
</svg>
